<?xml version="1.0" encoding="utf-8"?>
<!-- Generator: ChatGPT SVG Export -->
<svg version="1.1" id="nut" xmlns="http://www.w3.org/2000/svg" xmlns:xlink="http://www.w3.org/1999/xlink" x="0px" y="0px"
	 viewBox="0 0 407 556" style="enable-background:new 0 0 407 556;" xml:space="preserve">
<style type="text/css">
	.st0{fill:#C7B299;}
	.st1{fill:#A67C52;}

	svg:hover #nut-body {
		fill: #8B4513;
		animation: sway 2s ease-in-out infinite alternate;
		cursor: pointer;
	}

	svg:hover #nut-top path {
		fill: #8B4513;
		animation: sway 2s ease-in-out infinite alternate-reverse;
	}

	@keyframes sway {
		0% { transform: rotate(0deg); }
		50% { transform: rotate(5deg); }
		100% { transform: rotate(0deg); }
	}
</style>
<script>
	const pathNut = document.querySelector('#nut-body');
	function clickIcon() {        
        console.log("You clicked on Nut Icon!");
    }
	document.addEventListener('click', clickIcon);
</script>
<path id="nut-body" class="st0" d="M33.08,269.7c0,0-18.23,93,17.68,152.69s99.42,107.33,121.26,115.27s77.1,3.09,111-29.22
	c33.9-32.31,65.65-50.17,81.53-109.72c10.53-39.48,11.46-88.57,10.89-117.16c-0.31-15.5-6.08-30.4-16.39-41.98
	c-17.16-19.28-44.97-47.45-63.97-51.25c-9.92-1.98-63.51-19.85-129.01-7.94c-36.23,6.59-92.45,14.63-114.31,51.63
	C33.04,263.68,33.08,269.7,33.08,269.7z"/>
<g id="nut-top">
	<path class="st1" d="M20.69,268.32c6.48,6.48,15.46,9.66,15.46-3.86c0-10.57,19.73-25.71,54.1-28.98
		c57.26-5.44,95.82-11.49,175.81-1.93c76.01,9.08,103.79,28.98,108.19,40.57c4.4,11.59,17.39-3.86,19.32-15.46
		s-10.11-52.68-52.16-98.53C294.51,109,242.56,100.7,192.64,104.1c-50.63,3.45-67.22,12.01-100.46,30.91
		c-24.73,14.07-82.76,78.42-81.14,110.12C11.59,256,16.83,264.45,20.69,268.32z"/>
	<path class="st1" d="M231.28,106.03c3.26-0.01-5.37-30.92,13.52-50.23c10.15-10.37,18.27-12.27,21.97-15.45
		c2.91-2.5,2.9-7.03-0.06-9.47c-7.55-6.2-24.04-21.29-37.36-23.38c-19.9-3.12-31.83,8.11-38.64,40.57
		c-4.07,19.43-7.45,55.7-5.8,57.96"/>
</g>
</svg>
