<?xml version="1.0" encoding="utf-8"?>
<!-- Generator: Adobe Illustrator 28.2.0, SVG Export Plug-In . SVG Version: 6.00 Build 0)  -->
<svg version="1.1" id="peach" xmlns="http://www.w3.org/2000/svg" xmlns:xlink="http://www.w3.org/1999/xlink" x="0px" y="0px"
	 viewBox="0 0 456 557" style="enable-background:new 0 0 456 557;" xml:space="preserve">
<style type="text/css">
	.st0{fill:#006E31;}
	.st1{fill:#FEAD16;}
	.st2{fill:#87270E;}

	svg:hover #peach-body {
		fill: #c38d28;
	}

	svg:hover #core {
		fill: #521201;
	}

	svg:hover {
		animation: move .8s linear infinite;
		cursor: pointer;
	}

	@keyframes move {
		0% { transform: rotate(0deg); }
		25% { transform: rotate(5deg); }
		50% { transform: rotate(0eg); }
		75% { transform: rotate(-5deg); }
		100% { transform: rotate(0deg); }
	}
</style>
<script>
	const pathPeach = document.querySelector('#peach-body');
	function clickIcon() {        
        console.log("You clicked on Peach Icon!");
    }
	document.addEventListener('click', clickIcon);
</script>
<path id="leaf" class="st0" d="M232.23,109.64c-0.12,0.65,33.76-12.06,83.56,0c47.24,11.44,81.02-5.12,94.46-23.62
	c8.6-11.84-79.64-49.67-98.09-50.86c-19.96-1.29-54.51-0.98-72.66,23.62C223.18,80.87,227.89,110.51,232.23,109.64z"/>
<path id="stem" d="M243.13,15.17c0,0-46.08,37.11-27.25,128.98c19.3,94.19,11.19-60.88,18.17-85.38
	c5.31-18.63,18.9-28.7,20.05-33.47c0.29-1.22,1.19-1.92,0.97-3.16C254.23,17.26,250.33,12.81,243.13,15.17z"/>
<path id="peach-body" class="st1" d="M211,141.49c8.58,9.01,23.45,7.29,31.54-2.18c10.77-12.61,27.01-26.85,46.01-27.86
	c34.51-1.82,68.1,13.79,87.19,29.06c18.17,14.53,70.09,92.25,63.58,154.89c-5.88,56.62-15.63,101-61.76,152.99
	c-48.04,54.14-67.86,61.14-107.18,65.57c-28.41,3.2-28.75,24.49-41.78,29.83c-16.35,5.45-20.26-21.35-39.96-26.19
	C156.98,509.84,86,493.15,46.94,417.43C12.4,350.45,2.48,313.42,16.06,249.87c8.51-39.82,35.97-96.45,72.66-118.44
	C120.49,112.39,163.2,91.28,211,141.49z"/>
<ellipse id="core" class="st2" cx="227.69" cy="316.72" rx="66.3" ry="112.63"/>
</svg>
